<svg xmlns="http://www.w3.org/2000/svg" width="22" height="22" fill="none" xmlns:v="https://vecta.io/nano"><path fill-rule="evenodd" d="M11 22c6.075 0 11-4.925 11-11S17.075 0 11 0 0 4.925 0 11c0 5.422 3.922 9.927 9.084 10.834v.036a11.36 11.36 0 0 0 1.722.13h.098H11zm-.096 0a11.34 11.34 0 0 0 1.624-.13v-7.506h2.568l.489-3.105h-3.057V9.245c0-.85.426-1.678 1.795-1.678h1.391V4.924s-1.261-.21-2.467-.21c-2.519 0-4.163 1.487-4.163 4.179v2.366H6.286v3.105h2.798v7.47a11.05 11.05 0 0 0 1.82.166z" fill="#fdfdfd"/></svg>