<svg xmlns="http://www.w3.org/2000/svg" width="170" height="22" fill="none" xmlns:v="https://vecta.io/nano"><path d="M43.549 12.373v5.832h9.568v3.394H40V0h12.963v3.394H43.55V9.01h8.642v3.363H43.55zm24.237 1.45h-11.42v-3.209h11.42v3.209zM88.982 0h3.796v21.599h-3.549V6.202l-6.574 10.861h-.432L75.649 6.171v15.428H72.1V0h3.827l6.512 10.799L88.982 0zm22.796 15.304H99.494c.247 1.152.802 2.047 1.666 2.685.885.638 1.976.956 3.272.956 1.749 0 3.076-.638 3.981-1.913l2.747 1.604c-1.502 2.242-3.755 3.363-6.759 3.363-2.49 0-4.516-.761-6.08-2.283-1.543-1.543-2.315-3.487-2.315-5.832 0-2.283.761-4.207 2.284-5.77 1.502-1.563 3.457-2.345 5.864-2.345 2.243 0 4.095.792 5.556 2.376s2.191 3.507 2.191 5.77a8.9 8.9 0 0 1-.123 1.388zm-12.315-2.715h9.074c-.227-1.214-.741-2.15-1.543-2.808-.782-.658-1.739-.987-2.871-.987-1.234 0-2.263.339-3.086 1.018s-1.348 1.604-1.574 2.777zm23.488-6.819c1.79 0 3.22.576 4.29 1.728 1.091 1.131 1.636 2.674 1.636 4.628v9.473h-3.333v-9.133c0-1.152-.309-2.036-.926-2.654s-1.461-.926-2.531-.926c-1.214 0-2.171.381-2.87 1.142-.7.741-1.05 1.841-1.05 3.302v8.269h-3.333V6.171h3.333v1.975c1.029-1.584 2.624-2.376 4.784-2.376zm18.126.401V9.38h-3.827v7.405c0 .638.144 1.101.432 1.389.288.267.71.422 1.266.463l2.129-.031v2.993c-2.551.308-4.382.093-5.493-.648-1.112-.761-1.667-2.15-1.667-4.166V9.38h-2.84V6.171h2.84V2.839l3.333-.987v4.32h3.827zm15.446 13.484c-1.564 1.563-3.488 2.345-5.772 2.345s-4.207-.782-5.771-2.345c-1.584-1.584-2.377-3.507-2.377-5.77s.793-4.186 2.377-5.77c1.564-1.563 3.488-2.345 5.771-2.345s4.208.782 5.772 2.345c1.584 1.584 2.377 3.507 2.377 5.77s-.793 4.186-2.377 5.77zm-10.586-5.77c0 1.399.463 2.561 1.389 3.487s2.067 1.389 3.425 1.389 2.5-.463 3.426-1.389 1.389-2.088 1.389-3.487-.463-2.561-1.389-3.487-2.067-1.388-3.426-1.388-2.499.463-3.425 1.388-1.389 2.088-1.389 3.487zm19.31-7.714v2.592c.844-1.913 2.428-2.87 4.753-2.87v3.61c-1.255-.082-2.366.226-3.333.926-.947.679-1.42 1.81-1.42 3.394v7.776h-3.333V6.171h3.333z" fill="#353a5a"/><path d="M0 9.263C0 4.147 4.179 0 9.333 0H28v1.158c0 5.116-4.179 9.263-9.333 9.263H0V9.263zm0 9.263c0-3.197 2.612-5.789 5.833-5.789H7c2.577 0 4.667 2.074 4.667 4.632S9.577 22 7 22H0v-3.474zm16.333 0c0-3.197 2.612-5.789 5.833-5.789h1.167c2.577 0 4.667 2.074 4.667 4.632S25.911 22 23.333 22h-7v-3.474z" fill="#fa9f42"/></svg>