<svg xmlns="http://www.w3.org/2000/svg" width="22" height="22" fill="none" xmlns:v="https://vecta.io/nano"><path fill-rule="evenodd" d="M.632 3.168C0 4.409 0 6.034 0 9.284v3.433c0 3.249 0 4.874.632 6.115a5.8 5.8 0 0 0 2.536 2.536C4.409 22 6.034 22 9.284 22h3.433c3.249 0 4.874 0 6.115-.632a5.8 5.8 0 0 0 2.536-2.536C22 17.591 22 15.966 22 12.717V9.284c0-3.25 0-4.874-.632-6.115A5.8 5.8 0 0 0 18.832.632C17.591 0 15.966 0 12.717 0H9.284c-3.25 0-4.874 0-6.115.632A5.8 5.8 0 0 0 .632 3.168zM11 14.929A3.93 3.93 0 0 0 14.929 11 3.93 3.93 0 0 0 11 7.071 3.93 3.93 0 0 0 7.071 11 3.93 3.93 0 0 0 11 14.929zM13.357 11A2.36 2.36 0 0 1 11 13.357 2.36 2.36 0 0 1 8.643 11 2.36 2.36 0 0 1 11 8.643 2.36 2.36 0 0 1 13.357 11zm-9.7-5.283c-.514 1.008-.514 2.329-.514 4.969v.629c0 2.64 0 3.96.514 4.969.452.887 1.173 1.608 2.06 2.06 1.008.514 2.329.514 4.969.514h.629c2.64 0 3.96 0 4.969-.514.887-.452 1.608-1.173 2.06-2.06.514-1.008.514-2.329.514-4.969v-.629c0-2.64 0-3.96-.514-4.969-.452-.887-1.173-1.608-2.06-2.06-1.008-.514-2.329-.514-4.969-.514h-.629c-2.64 0-3.96 0-4.969.514-.887.452-1.608 1.173-2.06 2.06zm7.029-1.003h.629l2.968.059c.689.056 1.041.158 1.287.284.591.301 1.072.782 1.374 1.373.125.246.227.598.284 1.287.058.707.059 1.622.059 2.968v.629l-.059 2.968c-.056.689-.158 1.041-.284 1.287-.301.591-.782 1.072-1.374 1.374-.246.125-.598.227-1.287.284-.707.058-1.622.059-2.968.059h-.629c-1.346 0-2.261-.001-2.968-.059-.689-.056-1.041-.158-1.287-.284-.591-.301-1.072-.782-1.373-1.374-.125-.246-.227-.598-.284-1.287-.058-.707-.059-1.622-.059-2.968v-.629l.059-2.968c.056-.689.158-1.041.284-1.287.301-.591.782-1.072 1.373-1.373.246-.125.598-.227 1.287-.284.707-.058 1.622-.059 2.968-.059zM16.5 6.679a1.18 1.18 0 0 1-1.179 1.179 1.18 1.18 0 0 1-1.179-1.179A1.18 1.18 0 0 1 15.321 5.5 1.18 1.18 0 0 1 16.5 6.679z" fill="#fdfdfd"/></svg>