<svg xmlns="http://www.w3.org/2000/svg" width="22" height="22" fill="none" xmlns:v="https://vecta.io/nano"><path fill-rule="evenodd" d="M9.284 0h3.433c3.249 0 4.874 0 6.115.632a5.8 5.8 0 0 1 2.536 2.536C22 4.409 22 6.034 22 9.284v3.433c0 3.249 0 4.874-.632 6.115a5.8 5.8 0 0 1-2.536 2.536C17.591 22 15.966 22 12.717 22H9.284c-3.25 0-4.874 0-6.115-.632a5.8 5.8 0 0 1-2.536-2.536C0 17.591 0 15.966 0 12.717V9.284c0-3.25 0-4.874.632-6.115A5.8 5.8 0 0 1 3.168.632C4.409 0 6.034 0 9.284 0zm7.042 12.136c-.092.236-.055.468.115.698l.696.738c.714.737 1.451 1.497 1.68 2.242.08.465-.302.637-.691.637l-2.093.034c-.131.029-.284.014-.458-.043-.603-.198-.997-.674-1.395-1.154-.255-.308-.511-.618-.825-.857-.156-.119-.345-.2-.527-.103-.411.216-.422.632-.432 1.053-.008.318-.016.64-.197.88-.239.266-.703.232-1.082.204l-.292-.015c-3.917.14-6.47-5.474-7.637-8.371-.14-.391.081-.586.474-.586L5.9 7.477c.239.042.467.183.556.431.335.821 1.557 3.781 2.314 3.781s.568-3.016.311-3.583c-.136-.195-.368-.319-.695-.37-.071-.011-.057-.08.041-.207.343-.442 2.448-.573 3.369-.353.182.048.36.134.441.323.184.432.142 1.159.099 1.895-.053.912-.107 1.839.268 2.234.145.038.224.042.352-.06.967-.976 1.628-2.494 2.167-3.738a.46.46 0 0 1 .351-.314l.953.003 2.089-.003c1.008 0-.45 2.067-1.433 3.46-.383.543-.694.983-.758 1.16z" fill="#fdfdfd"/></svg>